<svg width="2817" height="499" viewBox="0 0 2817 499" fill="none" xmlns="http://www.w3.org/2000/svg">
<g clip-path="url(#clip0_18046_5)">
<path d="M380.407 465.731C348.237 441.091 316.364 416.066 284.794 390.661C267.73 376.942 250.969 362.85 234.523 348.397C206.861 324.285 178.261 298.026 158.379 266.904C134.644 229.75 121.656 185.618 131.102 141.672C138.79 105.908 159.946 73.4306 191.011 53.6825C220.693 34.8786 256.603 28.5625 290.921 36.11C318.72 42.3208 342.053 56.63 361.637 76.9305C365.19 80.6136 371.706 86.6543 374.378 90.8666C373.576 92.7938 370.483 97.1895 369.159 99.164L358.832 114.434C356.282 118.221 353.752 122.022 351.242 125.836C349.783 128.039 347.191 132.215 345.404 133.917C342.502 134.214 339.667 133.915 336.71 134.124C330.517 133.534 324.307 134.236 318.516 133.815C321.816 138.012 325.315 143.273 328.293 147.758C330.705 151.491 337.765 163.03 340.498 165.789C344.58 169.911 350.882 174.854 355.445 179.411C349.882 184.717 343.193 188.994 337.582 194.202C335.939 195.727 333.266 201.342 331.931 203.545C327.189 211.367 323.115 220.015 318.246 227.738C320.909 227.095 323.314 226.985 326.011 226.582C331.617 225.701 337.228 224.85 342.843 224.028L361.506 221.183C364.43 220.726 374.765 218.714 376.843 219.771L377.217 219.959C379.203 220.981 383.799 224.42 385.861 225.83C393.87 231.362 401.825 236.97 409.727 242.653L392.516 258.584C389.323 261.557 384.622 266.203 381.25 268.752C377.335 271.713 369.216 273.925 365.074 276.742C361.66 279.065 357.115 284.486 354.112 287.607C351.687 290.1 347.933 294.226 345.419 296.356C339.573 296.4 333.273 295.915 327.384 295.631L326.079 295.598C324.563 295.534 322.794 295.502 321.313 295.336C322.488 297.068 323.404 298.947 324.339 300.816C328.008 308.155 331.145 315.743 334.67 323.149C337.448 329.595 340.399 335.972 343.367 342.339C344.686 345.169 346.512 349.946 348.179 352.294C349.172 353.694 354.35 356.948 356.126 358.154L372.271 369.035C375.187 370.961 378.874 373.163 381.585 375.206C377.226 383.412 372.402 392.435 368.342 400.793C370.689 411.084 372.474 422.101 374.426 432.526C376.291 442.486 379.688 455.874 380.407 465.731Z" fill="#EC0120"/>
<path d="M369.844 143.879C372.278 140.081 375.151 136.259 377.739 132.496L394.724 107.846C401.816 97.624 408.835 86.9259 416.482 77.0766C419.376 73.348 423.794 69.9005 427.18 66.6255C444.016 51.5771 463.712 40.4757 485.892 35.6534C518.711 28.8458 552.892 35.2583 581.01 53.4982C611.928 73.6755 633.538 105.332 641.064 141.472C650.505 186.662 637.408 232.245 612.371 270.098C595.351 295.829 571.555 319.505 549.057 340.526C537.245 351.567 525.242 362.402 513.055 373.028C487.062 395.327 460.683 415.998 433.991 437.317C425.101 444.42 416.152 451.447 407.143 458.399C404.992 460.052 400.105 464.365 397.842 465.197L397.37 465.127C397.154 463.964 397.712 460.924 397.775 459.472C398.154 450.699 399.136 442.007 399.835 433.262L401.235 414.201C401.329 412.768 401.976 401.699 402.54 400.858C407.616 393.287 414.689 386.519 419.627 378.785C420.423 377.533 421.023 371.358 421.206 369.673L422.717 355.97C423.073 352.774 423.467 348.125 424.394 345.142C417.773 340.7 411.034 334.797 404.533 330.094C403.461 329.319 398.863 325.697 398.084 325.319C394.484 321.858 383.1 314.515 380.651 311.261C381.512 309.987 401.475 296.401 404.154 295.32C412.562 291.926 431.131 291.117 440.695 289.038C445.495 284.49 454.776 274.687 460.446 271.668C457.285 266.825 454.857 261.188 452.097 256.094C451.074 253.992 449.924 251.934 448.869 249.852C446.396 244.972 441.16 242.598 436.963 239.376C427.153 231.845 417.026 224.738 407.315 217.081C405.513 215.66 403.64 214.266 402.112 212.546C407.376 209.813 419.46 203.207 424.558 202.212C427.082 201.72 447.482 207.903 451.163 209.061C451.943 209.309 452.718 209.574 453.487 209.855C455.179 206.119 459.132 200.108 461.407 196.25C463.285 193.066 466.591 187.202 468.624 184.423C466.612 181.523 464.482 177.356 462.795 174.179L454.719 159.011L445.863 142.909C444.826 140.986 442.588 136.98 441.947 135.126C438.755 135.977 435.358 136.5 432.085 136.985C419.647 138.825 407.33 141.364 394.906 143.25C392.664 143.59 390.094 143.463 387.814 143.567C381.839 143.576 375.806 143.927 369.844 143.879Z" fill="#52179E"/>
<path d="M838 389.5C834 375.833 824.833 346.667 810.5 302C796.5 257 783 215.167 770 176.5C767.667 169.167 763.5 163.667 757.5 160C751.833 156.333 744 154.167 734 153.5L733 152L736 133C739.667 133 746.333 133.167 756 133.5C765.667 133.833 775.167 134 784.5 134C794.5 134 806.5 133.5 820.5 132.5C834.5 131.167 843.667 130.333 848 130L849.5 133L848 151C833.333 152 823.667 153.5 819 155.5C814.667 157.5 812.5 161.167 812.5 166.5C812.5 171.833 819.167 198 832.5 245C846.167 292 855.5 324 860.5 341H865C876.667 313 890.167 278.333 905.5 237C921.167 195.667 929 172.333 929 167C929 161.667 927 158 923 156C919 153.667 912.167 152.5 902.5 152.5H882.5L881.5 150.5L884 131.5C887.667 131.833 895.5 132.333 907.5 133C919.833 133.667 931.667 134 943 134C953.333 134 962.833 133.833 971.5 133.5C980.167 133.167 986 133 989 133L985.5 153.5C977.5 153.833 971.833 155.333 968.5 158C965.5 160.333 962.5 165.333 959.5 173L875 381L838 389.5ZM1023.2 366C1035.53 364.667 1043.86 361.667 1048.2 357C1052.53 352.333 1054.7 344.333 1054.7 333L1055.2 174.5C1055.2 166.167 1054.2 160.667 1052.2 158C1050.2 155 1046.2 153.5 1040.2 153.5L1026.7 154L1025.7 152L1028.7 133C1032.7 133 1040.53 133.167 1052.2 133.5C1063.86 133.833 1076.53 134 1090.2 134C1145.86 134 1187.03 132.5 1213.7 129.5L1215.2 132C1214.53 135.667 1213.03 144 1210.7 157C1208.36 170 1206.7 184 1205.7 199L1181.7 201C1181.7 199.667 1181.86 197.5 1182.2 194.5C1182.53 191.167 1182.7 187.833 1182.7 184.5C1182.7 175.833 1181.36 169.833 1178.7 166.5C1176.36 162.833 1171.2 160.5 1163.2 159.5C1155.53 158.167 1142.03 157.5 1122.7 157.5C1113.7 157.5 1107.53 157.833 1104.2 158.5C1100.86 158.833 1098.7 160 1097.7 162C1096.7 163.667 1096.03 167 1095.7 172L1092.7 243L1133.7 243.5C1139.7 243.5 1148.53 243 1160.2 242C1171.86 240.667 1179.53 239.833 1183.2 239.5L1185.2 242L1179.2 268C1175.53 268 1168.2 267.833 1157.2 267.5C1146.53 267.167 1135.2 267 1123.2 267C1113.86 267 1103.36 267.833 1091.7 269.5C1090.7 294.833 1090.2 317.667 1090.2 338C1090.2 345.667 1090.7 351 1091.7 354C1093.03 357 1095.7 359 1099.7 360C1104.03 361 1111.03 361.5 1120.7 361.5C1142.36 361.5 1157.86 360.5 1167.2 358.5C1176.53 356.5 1183.03 352.5 1186.7 346.5C1190.7 340.167 1193.86 329.5 1196.2 314.5L1218.2 312.5L1220.2 315C1219.2 318.667 1217.36 327.333 1214.7 341C1212.36 354.333 1210.53 368.333 1209.2 383L1206.2 385.5C1197.2 385.167 1178.53 384.667 1150.2 384C1121.86 383.333 1098.86 383 1081.2 383C1067.53 383 1054.86 383.5 1043.2 384.5C1031.53 385.833 1024.03 386.667 1020.7 387L1023.2 366ZM1281.1 366C1291.77 364.333 1298.93 361.333 1302.6 357C1306.6 352.333 1308.6 344.333 1308.6 333L1309.1 174.5C1309.1 166.167 1308.1 160.667 1306.1 158C1304.1 155 1300.1 153.5 1294.1 153.5L1280.6 154L1279.1 152L1282.1 133C1283.77 133 1288.77 133.167 1297.1 133.5C1305.43 133.833 1316.6 134 1330.6 134C1337.93 134 1346.93 133.5 1357.6 132.5C1368.6 131.5 1375.77 130.833 1379.1 130.5L1377.1 151.5C1368.1 152.5 1361.77 154.167 1358.1 156.5C1354.43 158.5 1352.27 161.167 1351.6 164.5C1350.93 167.833 1350.1 174.667 1349.1 185C1345.77 229.667 1344.1 279.167 1344.1 333.5C1344.1 341.833 1344.77 348 1346.1 352C1347.77 355.667 1350.77 358.167 1355.1 359.5C1359.77 360.833 1366.93 361.5 1376.6 361.5C1392.6 361.5 1404.27 360.167 1411.6 357.5C1419.27 354.833 1424.93 349.667 1428.6 342C1432.6 334 1436.1 321.5 1439.1 304.5L1461.1 302L1462.6 305C1461.93 309.333 1460.27 319.333 1457.6 335C1455.27 350.333 1453.1 366.5 1451.1 383.5L1448.6 386.5C1440.93 386.167 1424.6 385.5 1399.6 384.5C1374.93 383.5 1354.1 383 1337.1 383C1323.77 383 1311.27 383.5 1299.6 384.5C1288.27 385.833 1281.1 386.667 1278.1 387L1281.1 366ZM1604.29 387.5C1581.63 387.5 1561.46 382.5 1543.79 372.5C1526.46 362.5 1512.96 348.333 1503.29 330C1493.96 311.667 1489.29 290.5 1489.29 266.5C1489.29 240.5 1495.13 217.167 1506.79 196.5C1518.79 175.5 1534.96 159.167 1555.29 147.5C1575.96 135.5 1598.96 129.5 1624.29 129.5C1647.29 129.5 1667.63 134.5 1685.29 144.5C1702.96 154.5 1716.63 168.667 1726.29 187C1735.96 205 1740.79 226 1740.79 250C1740.79 276 1734.79 299.5 1722.79 320.5C1711.13 341.167 1694.79 357.5 1673.79 369.5C1653.13 381.5 1629.96 387.5 1604.29 387.5ZM1616.29 363.5C1640.63 363.5 1660.29 354.833 1675.29 337.5C1690.29 319.833 1697.79 296.5 1697.79 267.5C1697.79 245.5 1694.13 226.167 1686.79 209.5C1679.79 192.833 1669.63 180 1656.29 171C1643.29 162 1628.13 157.5 1610.79 157.5C1587.13 157.5 1567.96 166.167 1553.29 183.5C1538.96 200.833 1531.79 224 1531.79 253C1531.79 275 1535.29 294.333 1542.29 311C1549.29 327.667 1559.13 340.667 1571.79 350C1584.79 359 1599.63 363.5 1616.29 363.5ZM1899.77 387.5C1870.11 387.5 1847.44 380.167 1831.77 365.5C1816.44 350.833 1808.77 329.667 1808.77 302V174.5C1808.77 166.167 1807.77 160.667 1805.77 158C1803.77 155 1799.77 153.5 1793.77 153.5L1780.27 154L1779.27 152.5L1782.27 133C1785.94 133 1792.61 133.167 1802.27 133.5C1811.94 133.833 1821.77 134 1831.77 134C1839.11 134 1847.61 133.667 1857.27 133C1866.94 132 1873.27 131.333 1876.27 131L1874.27 151C1864.61 152.333 1858.11 154.5 1854.77 157.5C1851.44 160.5 1849.44 165.667 1848.77 173L1845.77 287.5C1845.77 311.167 1851.27 329.5 1862.27 342.5C1873.27 355.167 1889.11 361.5 1909.77 361.5C1930.77 361.5 1946.61 356.333 1957.27 346C1968.27 335.333 1973.77 320 1973.77 300C1973.77 279.333 1973.44 256 1972.77 230C1972.44 203.667 1972.11 185.167 1971.77 174.5C1971.11 165.5 1969.94 159.833 1968.27 157.5C1966.61 154.833 1962.94 153.5 1957.27 153.5L1940.27 154L1939.77 152.5L1942.77 133C1946.11 133 1952.27 133.167 1961.27 133.5C1970.61 133.833 1979.94 134 1989.27 134C1996.94 134 2005.11 133.667 2013.77 133C2022.77 132 2028.61 131.333 2031.27 131L2029.77 151C2018.11 152.667 2010.61 154.833 2007.27 157.5C2003.94 160.167 2002.27 165.167 2002.27 172.5V300.5C2002.27 328.167 1993.27 349.667 1975.27 365C1957.61 380 1932.44 387.5 1899.77 387.5ZM2264.37 389C2257.04 389 2249.54 385.833 2241.87 379.5C2234.2 372.833 2227.2 363.833 2220.87 352.5L2178.87 279H2146.37L2145.37 332.5C2145.37 342.167 2146.04 349.167 2147.37 353.5C2148.7 357.5 2151.2 360.167 2154.87 361.5C2158.87 362.833 2165.54 363.667 2174.87 364L2175.87 365.5L2171.87 384.5C2167.87 384.167 2160.54 383.833 2149.87 383.5C2139.54 383.5 2129.04 383.5 2118.37 383.5C2108.04 383.5 2099.04 383.667 2091.37 384C2083.7 384.333 2078.54 384.667 2075.87 385L2079.37 364.5C2091.7 362.833 2099.87 360 2103.87 356C2107.87 352 2109.87 344.5 2109.87 333.5L2110.37 174C2110.37 166 2109.37 160.667 2107.37 158C2105.37 155 2101.54 153.5 2095.87 153.5L2081.87 154L2080.37 152L2083.37 133C2086.7 133 2093.04 133.167 2102.37 133.5C2111.7 133.833 2121.04 134 2130.37 134C2140.04 134 2150.37 133.833 2161.37 133.5C2172.37 132.833 2179.87 132.5 2183.87 132.5C2210.87 132.5 2232.04 138.167 2247.37 149.5C2262.7 160.5 2270.37 175.833 2270.37 195.5C2270.37 210.833 2265.2 225 2254.87 238C2244.54 251 2230.04 261.667 2211.37 270L2253.87 334C2261.87 346 2269.54 354.5 2276.87 359.5C2284.2 364.5 2293.04 367 2303.37 367L2305.37 369.5L2302.87 385L2264.37 389ZM2187.87 257C2194.2 254.333 2199.7 251.833 2204.37 249.5C2209.37 246.833 2214.87 241.5 2220.87 233.5C2226.87 225.5 2229.87 215.167 2229.87 202.5C2229.87 170.167 2206.04 154 2158.37 154C2155.7 154 2153.87 154.667 2152.87 156C2151.87 157 2151.37 159.333 2151.37 163C2148.7 203.667 2147.37 233.667 2147.37 253L2187.87 257ZM2454.02 384L2455.52 366C2469.52 365 2478.85 363.5 2483.52 361.5C2488.52 359.5 2491.02 356.167 2491.02 351.5C2491.02 346.167 2489.85 340.5 2487.52 334.5L2475.52 296C2468.85 295.667 2455.02 295.5 2434.02 295.5C2424.35 295.5 2410.02 296.5 2391.02 298.5L2377.02 335.5C2374.69 343.167 2373.52 347.833 2373.52 349.5C2373.52 354.833 2375.35 358.667 2379.02 361C2382.69 363.333 2388.69 364.5 2397.02 364.5H2418.52L2420.02 366.5L2417.02 385.5C2413.69 385.167 2406.02 384.667 2394.02 384C2382.35 383.333 2370.85 383 2359.52 383C2348.85 383 2339.19 383.167 2330.52 383.5C2322.19 383.833 2316.52 384 2313.52 384L2316.52 363.5C2323.85 362.5 2329.69 360 2334.02 356C2338.35 351.667 2342.69 344.5 2347.02 334.5L2425.52 136L2461.02 129.5L2464.52 130C2464.52 131.333 2472.02 157.667 2487.02 209C2502.35 260.333 2516.02 302.833 2528.02 336.5C2531.35 346.167 2535.52 353 2540.52 357C2545.85 360.667 2554.19 363 2565.52 364L2566.52 366L2564.02 384C2560.69 384 2554.52 383.833 2545.52 383.5C2536.52 383.167 2527.52 383 2518.52 383C2504.85 383 2491.85 383.5 2479.52 384.5C2467.19 385.5 2459.19 386.167 2455.52 386.5L2454.02 384ZM2433.02 275C2444.69 275 2456.85 274.333 2469.52 273L2439.02 176H2435.52L2399.02 275H2433.02Z" fill="black"/>
</g>
<defs>
<clipPath id="clip0_18046_5">
<rect width="2817" height="499" fill="white"/>
</clipPath>
</defs>
</svg>
