<?xml version="1.0" encoding="utf-8" ?><svg xmlns="http://www.w3.org/2000/svg" xmlns:xlink="http://www.w3.org/1999/xlink" width="28" height="28" viewBox="0 0 28 28"><defs><linearGradient id="gradient_0" gradientUnits="userSpaceOnUse" x1="488.32474" y1="683.40118" x2="501.51718" y2="435.05783"><stop offset="0" stop-color="#594324"/><stop offset="1" stop-color="#82673E"/></linearGradient></defs><path fill="url(#gradient_0)" transform="scale(0.0273438 0.0273438)" d="M492.665 290.69C495.846 289.138 500.827 289.202 504.338 289.271C520.988 291.548 532.218 304.579 529.529 321.789C528.925 325.658 528.072 328.646 526.041 332.01C524.706 334.977 523.164 336.02 521.342 338.5C521.365 342.381 521.987 351.744 520.069 354.479C519.661 355.061 519.305 355.775 519.564 356.222C524.966 365.574 533.523 376.147 539.112 385.162C549.091 399.099 558.9 413.157 568.536 427.334C571.453 431.642 578.338 441.332 580.677 445.558L581.004 445.958C589.886 456.997 591.929 469.041 609.188 461.176C610.753 460.001 615.64 457.547 617.513 456.806C622.94 454.188 639.66 443.33 645.642 439.65C661.105 430.136 678.698 420.573 693.633 410.704C689.537 401.144 688.107 390.817 698.464 384.325C707.217 378.839 718.806 381.11 728.29 383.366C729.323 395.107 721.271 424.194 718.308 437.387C714.65 439.934 714.374 442.405 711.236 443.989L709.634 450.612L707.602 457.361C710.461 454.924 710.515 455.724 713.969 457.043L693.071 553.515L684.066 593.809C682.356 601.514 679.883 611.33 678.869 618.891C676.623 635.629 677.27 655.907 675.294 672.307C671.712 686.155 658.947 683.529 647.632 683.788C641.551 683.927 635.377 683.778 629.289 683.774L564.057 683.864L416.771 683.945L369.488 683.985C360.076 684.002 350.653 684.125 341.249 683.85C332.813 683.604 326.085 679.422 324.439 670.783C321.476 655.232 323.939 637.93 321.925 622.435C319.443 603.332 314.295 583.364 310.086 564.45C306.551 549.95 303.746 532.769 300.6 517.872L283.821 441.424C285.916 441.012 287.143 440.621 289.19 439.966C290.114 443.391 291.66 448.506 292.129 451.876C293.234 438.35 303.685 448.262 308.244 452.995C307.428 448.766 305.267 441.425 309.324 438.685C312.467 437.972 314.363 439.011 317.38 440.245C316.988 439.207 316.58 439.005 315.735 438.111C315.907 437.162 323.245 431.21 323.645 428.421C323.734 427.795 324.63 427.547 325.451 427.101C329.029 428.244 330.618 431.654 335.442 431.898C337.275 431.081 336.594 431.68 337.706 430.214C335.293 427.477 321.886 421.735 316.798 416.811L320.456 417.617C326.905 422.189 335.057 425.127 341.945 429.223C346.388 431.864 350.935 436.284 355.048 438.576C365.752 444.542 377.199 452.62 387.958 458.112C397.84 461.187 395.517 464.038 409.211 463.443C413.197 459.744 419.54 449.184 422.829 444.242C428.492 435.686 434.295 427.224 440.237 418.859C450.004 405.045 459.69 391.175 469.295 377.248C473.598 371.08 487.125 354.164 486.885 346.978C486.576 337.73 476.305 337.806 474.923 325.014L474.856 324.36C472.724 313.008 475.84 299.839 486.499 293.727C489.148 291.966 489.7 291.763 492.665 290.69ZM484.079 404.877C476.929 415.98 468.314 427.285 460.902 438.322C459.783 439.988 451.335 452.137 450.369 453.086C445.539 460.496 419.741 499.884 413.854 501.15C411.598 501.635 407.979 499.961 405.931 498.976C398.927 495.608 392.181 490.968 385.518 486.947C372.952 479.363 360.441 471.819 347.533 464.827C340.399 461.489 333.715 456.772 326.629 453.77C323.159 456.93 320.109 459.901 317.436 463.805C318.426 469.772 320.844 481.762 321.127 487.215C322.989 497.84 325.486 508.339 327.598 518.922C332.999 546.978 338.836 574.949 345.106 602.823L557.8 602.886C589.877 602.877 623.582 603.647 655.541 602.617C656.452 596.867 657.684 590.728 659.043 585.07C667.464 550.003 673.744 514.318 681.368 479.148C681.643 474.841 687.578 456.435 682.493 454.878C672.72 451.884 665.334 459.641 657.103 463.357L651.984 466.353C651.209 467.075 640.947 473.336 639.772 473.911C628.1 479.622 601.883 500.102 590.373 501.085C580.888 498.036 545.204 440.182 536.293 429.434C535.347 428.293 532.625 424.077 531.718 422.573C527.521 416.952 523.02 409.882 518.897 403.971C514.444 400.339 510.544 391.764 506.44 387.603C501.611 382.707 497.217 387.554 494.078 390.981C490.644 396.113 487.883 400.021 484.079 404.877ZM355.466 626.663C355.982 635.949 355.057 651 357.131 659.089L365.799 659.169L525.44 659.015L597.831 658.912C609.875 658.925 623.205 658.669 635.159 659.04C636.562 658.817 640.577 658.907 642.195 658.902C643.533 649.022 643.189 636.927 643.809 626.597L444.533 626.846C415.004 626.847 384.963 627.069 355.466 626.663Z"/><path fill="#917A55" transform="scale(0.0273438 0.0273438)" d="M492.665 290.69C495.846 289.138 500.827 289.202 504.338 289.271C520.988 291.548 532.218 304.579 529.529 321.789C528.925 325.658 528.072 328.646 526.041 332.01C524.706 334.977 523.164 336.02 521.342 338.5C521.365 342.381 521.987 351.744 520.069 354.479C519.661 355.061 519.305 355.775 519.564 356.222C524.966 365.574 533.523 376.147 539.112 385.162C549.091 399.099 558.9 413.157 568.536 427.334C571.453 431.642 578.338 441.332 580.677 445.558L581.004 445.958C589.886 456.997 591.929 469.041 609.188 461.176C610.753 460.001 615.64 457.547 617.513 456.806C622.94 454.188 639.66 443.33 645.642 439.65C661.105 430.136 678.698 420.573 693.633 410.704C689.537 401.144 688.107 390.817 698.464 384.325C707.217 378.839 718.806 381.11 728.29 383.366C729.323 395.107 721.271 424.194 718.308 437.387C714.65 439.934 714.374 442.405 711.236 443.989L709.634 450.612C709.163 447.949 709.582 447.749 708.07 446.085C703.781 444.935 700.947 449.409 693.604 450.714C693.145 453.832 692.765 456.274 692.068 459.36C691.508 458.386 690.948 457.536 690.337 456.595C688.478 455.808 689.075 456.048 686.738 456.492C685.173 462.237 683.276 474.517 681.368 479.148C681.643 474.841 687.578 456.435 682.493 454.878C672.72 451.884 665.334 459.641 657.103 463.357L651.984 466.353C651.209 467.075 640.947 473.336 639.772 473.911C628.1 479.622 601.883 500.102 590.373 501.085C580.888 498.036 545.204 440.182 536.293 429.434C535.347 428.293 532.625 424.077 531.718 422.573C527.521 416.952 523.02 409.882 518.897 403.971C514.444 400.339 510.544 391.764 506.44 387.603C501.611 382.707 497.217 387.554 494.078 390.981C490.644 396.113 487.883 400.021 484.079 404.877C476.929 415.98 468.314 427.285 460.902 438.322C459.783 439.988 451.335 452.137 450.369 453.086C445.539 460.496 419.741 499.884 413.854 501.15C411.598 501.635 407.979 499.961 405.931 498.976C398.927 495.608 392.181 490.968 385.518 486.947C372.952 479.363 360.441 471.819 347.533 464.827C340.399 461.489 333.715 456.772 326.629 453.77C323.159 456.93 320.109 459.901 317.436 463.805C318.426 469.772 320.844 481.762 321.127 487.215C320.04 485.105 316.367 465.531 315.323 461.134C313.726 463.355 312.811 462.219 311.15 464.336L308.244 452.995C307.428 448.766 305.267 441.425 309.324 438.685C312.467 437.972 314.363 439.011 317.38 440.245C316.988 439.207 316.58 439.005 315.735 438.111C315.907 437.162 323.245 431.21 323.645 428.421C323.734 427.795 324.63 427.547 325.451 427.101C329.029 428.244 330.618 431.654 335.442 431.898C337.275 431.081 336.594 431.68 337.706 430.214C335.293 427.477 321.886 421.735 316.798 416.811L320.456 417.617C326.905 422.189 335.057 425.127 341.945 429.223C346.388 431.864 350.935 436.284 355.048 438.576C365.752 444.542 377.199 452.62 387.958 458.112C397.84 461.187 395.517 464.038 409.211 463.443C413.197 459.744 419.54 449.184 422.829 444.242C428.492 435.686 434.295 427.224 440.237 418.859C450.004 405.045 459.69 391.175 469.295 377.248C473.598 371.08 487.125 354.164 486.885 346.978C486.576 337.73 476.305 337.806 474.923 325.014L474.856 324.36C472.724 313.008 475.84 299.839 486.499 293.727C489.148 291.966 489.7 291.763 492.665 290.69Z"/><path fill="#BC9C6D" transform="scale(0.0273438 0.0273438)" d="M492.665 290.69C495.846 289.138 500.827 289.202 504.338 289.271C503.701 291.967 503.224 292.616 501.704 295.01C494.079 296.514 488.785 297.163 483.988 304.256C480.413 309.544 479.569 316.129 480.807 322.317C482.768 332.118 489.48 336.011 497.178 341.113C497.173 343.265 497.264 345.953 496.466 347.937C491.437 360.441 482.446 371.012 475.06 381.829C463.962 398.083 453.178 414.466 441.713 430.471C435.619 438.979 429.091 446.868 423.557 455.846C422.413 457.701 420.238 460.324 419.325 461.995L410.888 473.716C399.033 472.997 397.329 468.804 387.238 463.668C383.495 463.79 371.879 468.098 370.99 472.206C370.255 471.958 366.971 470.064 366.092 469.578L335.851 451.679C332.221 450.053 321.008 442.701 317.38 440.245C316.988 439.207 316.58 439.005 315.735 438.111C315.907 437.162 323.245 431.21 323.645 428.421C323.734 427.795 324.63 427.547 325.451 427.101C329.029 428.244 330.618 431.654 335.442 431.898C337.275 431.081 336.594 431.68 337.706 430.214C335.293 427.477 321.886 421.735 316.798 416.811L320.456 417.617C326.905 422.189 335.057 425.127 341.945 429.223C346.388 431.864 350.935 436.284 355.048 438.576C365.752 444.542 377.199 452.62 387.958 458.112C397.84 461.187 395.517 464.038 409.211 463.443C413.197 459.744 419.54 449.184 422.829 444.242C428.492 435.686 434.295 427.224 440.237 418.859C450.004 405.045 459.69 391.175 469.295 377.248C473.598 371.08 487.125 354.164 486.885 346.978C486.576 337.73 476.305 337.806 474.923 325.014L474.856 324.36C472.724 313.008 475.84 299.839 486.499 293.727C489.148 291.966 489.7 291.763 492.665 290.69Z"/><defs><linearGradient id="gradient_1" gradientUnits="userSpaceOnUse" x1="364.14722" y1="468.13474" x2="353.40045" y2="440.65112"><stop offset="0" stop-color="#725734"/><stop offset="1" stop-color="#A98A58"/></linearGradient></defs><path fill="url(#gradient_1)" transform="scale(0.0273438 0.0273438)" d="M335.851 451.679L337.305 451.061C339.477 438.746 348.372 448.022 351.387 442.945C354.589 444.376 359.637 447.52 362.925 449.417L382.376 460.503L387.238 463.668C383.495 463.79 371.879 468.098 370.99 472.206C370.255 471.958 366.971 470.064 366.092 469.578L335.851 451.679Z"/><path fill="#6F5735" transform="scale(0.0273438 0.0273438)" d="M382.376 460.503L387.238 463.668C383.495 463.79 371.879 468.098 370.99 472.206C370.255 471.958 366.971 470.064 366.092 469.578L365.296 467.774C371.893 464.664 374.058 465.64 382.376 460.503Z"/><path fill="#594325" transform="scale(0.0273438 0.0273438)" d="M474.856 324.36C480.059 337.643 484.448 336.216 492.062 344.294C487.826 355.984 466.7 384.169 458.59 395.992C447.833 411.719 436.994 427.39 426.072 443.003C420.462 450.98 413.59 461.096 407.55 468.648C400.088 466.448 394.144 462.753 387.958 458.112C397.84 461.187 395.517 464.038 409.211 463.443C413.197 459.744 419.54 449.184 422.829 444.242C428.492 435.686 434.295 427.224 440.237 418.859C450.004 405.045 459.69 391.175 469.295 377.248C473.598 371.08 487.125 354.164 486.885 346.978C486.576 337.73 476.305 337.806 474.923 325.014L474.856 324.36Z"/><path fill="#D6C8B5" transform="scale(0.0273438 0.0273438)" d="M486.499 293.727C489.148 291.966 489.7 291.763 492.665 290.69L493.125 291.37C492.456 293.996 490.094 294.973 487.535 294.764L486.499 293.727Z"/><defs><linearGradient id="gradient_2" gradientUnits="userSpaceOnUse" x1="378.28397" y1="508.61145" x2="357.71048" y2="426.86646"><stop offset="0" stop-color="#A88652"/><stop offset="1" stop-color="#DDC69A"/></linearGradient></defs><path fill="url(#gradient_2)" transform="scale(0.0273438 0.0273438)" d="M308.244 452.995C307.428 448.766 305.267 441.425 309.324 438.685C312.467 437.972 314.363 439.011 317.38 440.245C321.008 442.701 332.221 450.053 335.851 451.679L366.092 469.578C366.971 470.064 370.255 471.958 370.99 472.206C371.879 468.098 383.495 463.79 387.238 463.668C397.329 468.804 399.033 472.997 410.888 473.716L419.325 461.995C419.394 465.495 414.707 469.728 413.751 473.377C414.624 473.717 417.024 474.938 417.68 474.291C423.053 468.994 425.501 473.569 429.91 473.434C434.962 467.299 438.278 460.579 444.836 452.945C444.051 455.614 427.25 478.633 424.175 483.174C426.085 483.227 427.089 483.457 428.508 482.275C433.829 477.838 445.161 455.208 450.369 453.086C445.539 460.496 419.741 499.884 413.854 501.15C411.598 501.635 407.979 499.961 405.931 498.976C398.927 495.608 392.181 490.968 385.518 486.947C372.952 479.363 360.441 471.819 347.533 464.827C340.399 461.489 333.715 456.772 326.629 453.77C323.159 456.93 320.109 459.901 317.436 463.805C318.426 469.772 320.844 481.762 321.127 487.215C320.04 485.105 316.367 465.531 315.323 461.134C313.726 463.355 312.811 462.219 311.15 464.336L308.244 452.995Z"/><path fill="#594325" transform="scale(0.0273438 0.0273438)" d="M419.325 461.995C419.394 465.495 414.707 469.728 413.751 473.377C414.624 473.717 417.024 474.938 417.68 474.291C423.053 468.994 425.501 473.569 429.91 473.434C426.6 478.108 417.289 492.405 413.43 494.618C406.737 495.565 396.538 487.853 390.968 484.46C384.357 480.433 377.352 476.581 370.99 472.206C371.879 468.098 383.495 463.79 387.238 463.668C397.329 468.804 399.033 472.997 410.888 473.716L419.325 461.995Z"/><defs><linearGradient id="gradient_3" gradientUnits="userSpaceOnUse" x1="322.31021" y1="459.17453" x2="311.99289" y2="446.75168"><stop offset="0" stop-color="#5E3D0D"/><stop offset="1" stop-color="#7F571B"/></linearGradient></defs><path fill="url(#gradient_3)" transform="scale(0.0273438 0.0273438)" d="M312.051 443.984C317.734 446.042 343.196 460.753 347.533 464.827C340.399 461.489 333.715 456.772 326.629 453.77C323.159 456.93 320.109 459.901 317.436 463.805C318.426 469.772 320.844 481.762 321.127 487.215C320.04 485.105 316.367 465.531 315.323 461.134C314.144 455.435 313.053 449.718 312.051 443.984Z"/><path fill="#D6C8B5" transform="scale(0.0273438 0.0273438)" d="M693.633 410.704C689.537 401.144 688.107 390.817 698.464 384.325C707.217 378.839 718.806 381.11 728.29 383.366C729.323 395.107 721.271 424.194 718.308 437.387C714.65 439.934 714.374 442.405 711.236 443.989C712.935 435.137 714.7 426.297 716.531 417.471C719.239 405.009 720.787 400.662 722.031 387.3C698.236 382.769 692.637 389.727 700.305 412.621C683.456 424.469 664.57 434.569 646.66 444.773C642.116 447.362 622.557 460.434 619.649 460.961C619.068 460.01 617.655 457.837 617.513 456.806C622.94 454.188 639.66 443.33 645.642 439.65C661.105 430.136 678.698 420.573 693.633 410.704Z"/><path fill="#D6C8B5" transform="scale(0.0273438 0.0273438)" d="M504.338 289.271C520.988 291.548 532.218 304.579 529.529 321.789C528.925 325.658 528.072 328.646 526.041 332.01C524.706 334.977 523.164 336.02 521.342 338.5C521.365 342.381 521.987 351.744 520.069 354.479C519.661 355.061 519.305 355.775 519.564 356.222C524.966 365.574 533.523 376.147 539.112 385.162L538.245 385.268C540.461 388.558 542.136 391.114 544.057 394.568C542.304 393.203 537.863 389.468 535.891 389.295L535.718 390.638C534.382 389.171 530.559 383.928 529.623 382.151C525.392 374.123 508.914 355.286 507.487 347.746C505.963 337.015 514.37 338.476 518.246 333.327C529.65 318.178 523.99 295.089 501.704 295.01C503.224 292.616 503.701 291.967 504.338 289.271Z"/><path fill="#594325" transform="scale(0.0273438 0.0273438)" d="M512.796 346.084C513.418 341.15 519.331 338.922 522.704 335.502C523.929 334.26 524.767 333.218 526.041 332.01C524.706 334.977 523.164 336.02 521.342 338.5C521.365 342.381 521.987 351.744 520.069 354.479C519.661 355.061 519.305 355.775 519.564 356.222C524.966 365.574 533.523 376.147 539.112 385.162L538.245 385.268C531.687 376.063 525.623 366.532 518.974 357.407C515.772 353.013 514.424 351.281 512.796 346.084Z"/><path fill="#BC9C6D" transform="scale(0.0273438 0.0273438)" d="M481.627 399.311C486.281 397.327 488.739 386.248 494.008 386.87L494.763 387.511L494.177 388.275C493.326 389.396 493.815 388.588 493.409 389.703C492.335 392.647 483.42 402.607 483.91 404.556C483.94 404.673 484.023 404.77 484.079 404.877C476.929 415.98 468.314 427.285 460.902 438.322C459.783 439.988 451.335 452.137 450.369 453.086C445.161 455.208 433.829 477.838 428.508 482.275C427.089 483.457 426.085 483.227 424.175 483.174C427.25 478.633 444.051 455.614 444.836 452.945C446.793 447.445 476.802 404.575 481.627 399.311Z"/><defs><linearGradient id="gradient_4" gradientUnits="userSpaceOnUse" x1="669.32318" y1="467.93939" x2="675.3924" y2="436.48816"><stop offset="0" stop-color="#C2A472"/><stop offset="1" stop-color="#EADAB9"/></linearGradient></defs><path fill="url(#gradient_4)" transform="scale(0.0273438 0.0273438)" d="M651.984 466.353C650.707 465.421 650.906 464.615 650.375 462.642L649.125 461.964C650.069 460.321 664.44 451.911 667.116 450.22C672.35 446.914 686.478 436.397 692.64 439.378C694.384 442.512 693.733 446.998 693.604 450.714C693.145 453.832 692.765 456.274 692.068 459.36C691.508 458.386 690.948 457.536 690.337 456.595C688.478 455.808 689.075 456.048 686.738 456.492C685.173 462.237 683.276 474.517 681.368 479.148C681.643 474.841 687.578 456.435 682.493 454.878C672.72 451.884 665.334 459.641 657.103 463.357L651.984 466.353Z"/><defs><linearGradient id="gradient_5" gradientUnits="userSpaceOnUse" x1="678.04291" y1="456.64517" x2="687.9765" y2="446.99023"><stop offset="0" stop-color="#5C400F"/><stop offset="1" stop-color="#7C5B25"/></linearGradient></defs><path fill="url(#gradient_5)" transform="scale(0.0273438 0.0273438)" d="M657.103 463.357C661.189 459.354 683.107 446.775 688.712 444.832C688.408 449.489 687.783 451.934 686.738 456.492C685.173 462.237 683.276 474.517 681.368 479.148C681.643 474.841 687.578 456.435 682.493 454.878C672.72 451.884 665.334 459.641 657.103 463.357Z"/><defs><linearGradient id="gradient_6" gradientUnits="userSpaceOnUse" x1="520.40515" y1="423.35876" x2="504.99759" y2="374.75717"><stop offset="0" stop-color="#C3AA7E"/><stop offset="1" stop-color="#EBDDC0"/></linearGradient></defs><path fill="url(#gradient_6)" transform="scale(0.0273438 0.0273438)" d="M481.627 399.311C485.621 393.58 494.982 377.926 500.589 375.649C508.156 376.021 518.946 394.848 523.456 400.528C526.852 404.804 533.128 412.155 534.732 416.979L532.984 416.723C531.597 418.583 532.149 419.951 531.718 422.573C527.521 416.952 523.02 409.882 518.897 403.971C514.444 400.339 510.544 391.764 506.44 387.603C501.611 382.707 497.217 387.554 494.078 390.981C490.644 396.113 487.883 400.021 484.079 404.877C484.023 404.77 483.94 404.673 483.91 404.556C483.42 402.607 492.335 392.647 493.409 389.703C493.815 388.588 493.326 389.396 494.177 388.275L494.763 387.511L494.008 386.87C488.739 386.248 486.281 397.327 481.627 399.311Z"/><path fill="#594325" transform="scale(0.0273438 0.0273438)" d="M501.826 379.641C504.484 383.108 517.274 400.197 518.897 403.971C514.444 400.339 510.544 391.764 506.44 387.603C501.611 382.707 497.217 387.554 494.078 390.981C496.067 387.382 499.22 382.825 501.826 379.641Z"/><path fill="#594325" transform="scale(0.0273438 0.0273438)" d="M580.677 445.558L581.004 445.958C589.886 456.997 591.929 469.041 609.188 461.176C606.306 464.715 600.238 467.23 596.006 468.687C592.758 465.119 581.815 449.937 580.677 445.558Z"/><path fill="#594325" transform="scale(0.0273438 0.0273438)" d="M579.258 479.445C582.482 477.46 585.654 475.8 588.841 473.959C593.042 471.532 595.054 473.306 599.652 472.761C600.876 472.616 604.297 471.24 605.584 470.736C607.949 472.192 615.473 476.645 616.321 478.75L615.484 480.261L615.848 480.625L618.44 479.341L618.667 479.887C614.514 484.345 596.742 494.934 589.959 494.437C587.196 494.234 580.12 482.282 578.418 479.758L579.258 479.445Z"/><path fill="#6F5735" transform="scale(0.0273438 0.0273438)" d="M578.418 479.758C576.712 478.567 566.106 463.063 565.517 461.287L565.782 460.957C566.964 461.537 577.425 477.056 579.258 479.445L578.418 479.758Z"/><path fill="#6F5735" transform="scale(0.0273438 0.0273438)" d="M578.666 455.301C582.544 456.332 585.399 462.825 586.835 466.333L586.302 466.407C584.066 463.656 581.467 458.944 578.666 455.301Z"/><path fill="#BC9C6D" transform="scale(0.0273438 0.0273438)" d="M686.738 456.492C689.075 456.048 688.478 455.808 690.337 456.595C690.948 457.536 691.508 458.386 692.068 459.36C688.304 470.187 686.78 481.063 684.297 492.208C678.331 518.999 674.757 545.946 668.172 572.704C665.142 585.019 663.717 595.567 658.422 607.407C638.621 609.382 611.4 608.21 590.974 608.281C547.722 608.596 504.468 608.603 461.216 608.302L390.38 608.113C375.856 608.185 356.226 609.16 342.367 607.36C336.241 595.187 334.951 582.549 332.228 569.373C330.901 562.954 328.399 555.353 327.331 549.152C323.86 528.985 319.361 509.534 316.398 489.26C315.241 481.339 312.478 472.548 311.15 464.336C312.811 462.219 313.726 463.355 315.323 461.134C316.367 465.531 320.04 485.105 321.127 487.215C322.989 497.84 325.486 508.339 327.598 518.922C332.999 546.978 338.836 574.949 345.106 602.823L557.8 602.886C589.877 602.877 623.582 603.647 655.541 602.617C656.452 596.867 657.684 590.728 659.043 585.07C667.464 550.003 673.744 514.318 681.368 479.148C683.276 474.517 685.173 462.237 686.738 456.492Z"/><defs><linearGradient id="gradient_7" gradientUnits="userSpaceOnUse" x1="487.62646" y1="692.20093" x2="495.52496" y2="575.18536"><stop offset="0" stop-color="#7F643E"/><stop offset="1" stop-color="#B8935E"/></linearGradient></defs><path fill="url(#gradient_7)" transform="scale(0.0273438 0.0273438)" d="M315.798 560.623C318.095 574.211 320.667 587.75 323.512 601.234C325.074 608.61 327.3 616.768 328.31 624.137C329.616 633.663 327.268 650.174 328.889 659.191C328.994 663.508 328.966 669.462 329.886 673.539C331.907 676.448 332.812 676.559 336.396 677.182L336.856 677.257L339.233 676.209C342.932 675.967 346.127 675.785 349.708 676.948C356.371 677.487 367.244 677.067 374.3 677.055L432.515 676.492L517.203 677.051C549.512 676.872 581.822 676.935 614.129 677.238C625.967 677.447 637.806 677.563 649.646 677.588C654.54 677.62 659.464 677.912 664.331 677.847C669.346 677.781 670.954 674.88 671.988 670.623L673.515 672.298C674.117 672.322 674.715 672.389 675.294 672.307C671.712 686.155 658.947 683.529 647.632 683.788C641.551 683.927 635.377 683.778 629.289 683.774L564.057 683.864L416.771 683.945L369.488 683.985C360.076 684.002 350.653 684.125 341.249 683.85C332.813 683.604 326.085 679.422 324.439 670.783C321.476 655.232 323.939 637.93 321.925 622.435C319.443 603.332 314.295 583.364 310.086 564.45L311.227 565.148C313.688 564.095 314.903 563.09 315.798 560.623Z"/><path fill="#18120B" transform="scale(0.0273438 0.0273438)" d="M339.233 676.209C342.932 675.967 346.127 675.785 349.708 676.948C345.124 676.993 341.674 677.656 336.856 677.257L339.233 676.209Z"/><path fill="#BC9C6D" transform="scale(0.0273438 0.0273438)" d="M707.602 457.361C710.461 454.924 710.515 455.724 713.969 457.043L693.071 553.515L684.066 593.809C682.356 601.514 679.883 611.33 678.869 618.891C676.623 635.629 677.27 655.907 675.294 672.307C674.715 672.389 674.117 672.322 673.515 672.298L671.988 670.623C671.529 656.045 671.772 636.375 673.163 621.879C674.228 610.77 678.104 594.573 680.251 583.291C688.229 541.366 700.036 499.337 707.602 457.361Z"/><path fill="#BC9C6D" transform="scale(0.0273438 0.0273438)" d="M283.821 441.424C285.916 441.012 287.143 440.621 289.19 439.966C290.114 443.391 291.66 448.506 292.129 451.876L315.798 560.623C314.903 563.09 313.688 564.095 311.227 565.148L310.086 564.45C306.551 549.95 303.746 532.769 300.6 517.872L283.821 441.424Z"/><path transform="scale(0.0273438 0.0273438)" d="M330.431 671.668C334.286 673.281 335.678 674.007 339.233 676.209L336.856 677.257L336.396 677.182C332.812 676.559 331.907 676.448 329.886 673.539L330.431 671.668Z"/><path fill="#18120B" transform="scale(0.0273438 0.0273438)" d="M328.889 659.191L329.139 656.05L329.527 656.212C330.152 659.882 330.581 667.884 330.431 671.668L329.886 673.539C328.966 669.462 328.994 663.508 328.889 659.191Z"/><path fill="#917A55" transform="scale(0.0273438 0.0273438)" d="M355.064 662.762C348.771 661.019 351.507 632.298 351.737 626.447C352.069 617.982 374.354 620.446 380.128 620.478C390.153 620.512 400.178 620.469 410.202 620.35C457.879 619.87 505.558 619.749 553.237 619.987C571.144 619.851 589.052 619.954 606.957 620.296C616.655 620.404 638.294 619.888 646.832 622.578C650.872 626.246 649.435 638.243 649.492 643.625C649.567 650.679 648.622 656.715 644.836 662.745C637.998 663.828 630.207 663.564 623.224 663.551L594.647 663.5L492.639 663.509L400.04 663.537C390.839 663.545 362.326 664.107 355.064 662.762ZM357.131 659.089L365.799 659.169L525.44 659.015L597.831 658.912C609.875 658.925 623.205 658.669 635.159 659.04C636.562 658.817 640.577 658.907 642.195 658.902C643.533 649.022 643.189 636.927 643.809 626.597L444.533 626.846C415.004 626.847 384.963 627.069 355.466 626.663C355.982 635.949 355.057 651 357.131 659.089Z"/><path fill="#BC9C6D" transform="scale(0.0273438 0.0273438)" d="M365.799 659.169L525.44 659.015L597.831 658.912C609.875 658.925 623.205 658.669 635.159 659.04C636.659 660.112 640.064 659.727 642.219 659.698C643.293 661.193 643.522 661.446 644.836 662.745C637.998 663.828 630.207 663.564 623.224 663.551L594.647 663.5L492.639 663.509L400.04 663.537C390.839 663.545 362.326 664.107 355.064 662.762C358.44 658.874 360.185 660.43 365.388 659.265L365.799 659.169Z"/><defs><linearGradient id="gradient_8" gradientUnits="userSpaceOnUse" x1="288.54559" y1="385.16092" x2="310.88016" y2="448.45435"><stop offset="0" stop-color="#645D55"/><stop offset="1" stop-color="#A78C5D"/></linearGradient></defs><path fill="url(#gradient_8)" transform="scale(0.0273438 0.0273438)" d="M272.321 383.533C286.834 378.903 297.382 378.287 308.438 390.109C313.135 396.174 311.124 404.144 312.658 412.355C315.339 414.064 317.958 415.647 320.456 417.617L316.798 416.811C321.886 421.735 335.293 427.477 337.706 430.214C336.594 431.68 337.275 431.081 335.442 431.898C330.618 431.654 329.029 428.244 325.451 427.101C324.63 427.547 323.734 427.795 323.645 428.421C323.245 431.21 315.907 437.162 315.735 438.111C316.58 439.005 316.988 439.207 317.38 440.245C314.363 439.011 312.467 437.972 309.324 438.685C305.267 441.425 307.428 448.766 308.244 452.995C303.685 448.262 293.234 438.35 292.129 451.876C291.66 448.506 290.114 443.391 289.19 439.966C287.143 440.621 285.916 441.012 283.821 441.424L277.012 409.935C275.047 400.936 272.841 392.777 272.321 383.533Z"/><path fill="#D6C8B5" transform="scale(0.0273438 0.0273438)" d="M272.321 383.533C286.834 378.903 297.382 378.287 308.438 390.109C313.135 396.174 311.124 404.144 312.658 412.355C315.339 414.064 317.958 415.647 320.456 417.617L316.798 416.811C321.886 421.735 335.293 427.477 337.706 430.214C336.594 431.68 337.275 431.081 335.442 431.898C330.618 431.654 329.029 428.244 325.451 427.101C323.409 426.326 303.862 414.584 300.964 412.581C303.004 406.366 306.164 398.404 303.086 392.14C298.84 383.5 286.477 385.883 279.031 387.809C280.305 399.653 282.964 410.658 285.462 422.269C286.554 427.343 287.667 435.234 289.19 439.966C287.143 440.621 285.916 441.012 283.821 441.424L277.012 409.935C275.047 400.936 272.841 392.777 272.321 383.533Z"/><path fill="#594325" transform="scale(0.0273438 0.0273438)" d="M308.438 390.109C313.135 396.174 311.124 404.144 312.658 412.355C315.339 414.064 317.958 415.647 320.456 417.617L316.798 416.811C314.265 415.038 309.27 412.373 306.431 410.744C310.974 402.874 310.48 398.415 308.438 390.109Z"/><path fill="#BC9C6D" transform="scale(0.0273438 0.0273438)" d="M711.236 443.989C714.374 442.405 714.65 439.934 718.308 437.387C716.913 443.95 715.467 450.502 713.969 457.043C710.515 455.724 710.461 454.924 707.602 457.361L709.634 450.612L711.236 443.989Z"/></svg>